<svg width="44" height="45" viewBox="0 0 44 45" fill="none" xmlns="http://www.w3.org/2000/svg">
<path d="M12 29.3333C12 31.0333 13.3 32.3333 15 32.3333H29C30.7 32.3333 32 31.0333 32 29.3333V21.3333H12V29.3333ZM29 14.3333H27V13.3333C27 12.7333 26.6 12.3333 26 12.3333C25.4 12.3333 25 12.7333 25 13.3333V14.3333H19V13.3333C19 12.7333 18.6 12.3333 18 12.3333C17.4 12.3333 17 12.7333 17 13.3333V14.3333H15C13.3 14.3333 12 15.6333 12 17.3333V19.3333H32V17.3333C32 15.6333 30.7 14.3333 29 14.3333Z" fill="#232ABD"/>
</svg>
