<svg width="44" height="45" viewBox="0 0 44 45" fill="none" xmlns="http://www.w3.org/2000/svg">
<path d="M14 29.3333V20.3333C14 20.0166 14.071 19.7166 14.213 19.4333C14.355 19.15 14.5507 18.9166 14.8 18.7333L20.8 14.2333C21.15 13.9666 21.55 13.8333 22 13.8333C22.45 13.8333 22.85 13.9666 23.2 14.2333L29.2 18.7333C29.45 18.9166 29.646 19.15 29.788 19.4333C29.93 19.7166 30.0007 20.0166 30 20.3333V29.3333C30 29.8833 29.804 30.3543 29.412 30.7463C29.02 31.1383 28.5493 31.334 28 31.3333H25C24.7167 31.3333 24.4793 31.2373 24.288 31.0453C24.0967 30.8533 24.0007 30.616 24 30.3333V25.3333C24 25.05 23.904 24.8126 23.712 24.6213C23.52 24.43 23.2827 24.334 23 24.3333H21C20.7167 24.3333 20.4793 24.4293 20.288 24.6213C20.0967 24.8133 20.0007 25.0506 20 25.3333V30.3333C20 30.6166 19.904 30.8543 19.712 31.0463C19.52 31.2383 19.2827 31.334 19 31.3333H16C15.45 31.3333 14.9793 31.1376 14.588 30.7463C14.1967 30.355 14.0007 29.884 14 29.3333Z" fill="#C30712"/>
</svg>
