<svg width="44" height="45" viewBox="0 0 44 45" fill="none" xmlns="http://www.w3.org/2000/svg">
<path fill-rule="evenodd" clip-rule="evenodd" d="M23.984 12.8753C24.071 13.0443 24.093 13.2613 24.136 13.6953C24.218 14.5153 24.259 14.9253 24.431 15.1513C24.5382 15.2916 24.6806 15.4011 24.8437 15.4685C25.0069 15.536 25.185 15.559 25.36 15.5353C25.64 15.4983 25.96 15.2373 26.598 14.7153C26.935 14.4383 27.104 14.3003 27.285 14.2423C27.5155 14.1686 27.7649 14.1811 27.987 14.2773C28.162 14.3533 28.317 14.5073 28.624 14.8153L29.518 15.7093C29.826 16.0173 29.98 16.1713 30.056 16.3463C30.1522 16.5684 30.1647 16.8178 30.091 17.0483C30.033 17.2293 29.895 17.3983 29.619 17.7353C29.096 18.3743 28.835 18.6933 28.797 18.9743C28.7736 19.1492 28.7969 19.3272 28.8645 19.4902C28.9321 19.6532 29.0417 19.7954 29.182 19.9023C29.407 20.0743 29.818 20.1153 30.639 20.1973C31.072 20.2403 31.289 20.2623 31.459 20.3493C31.6735 20.4605 31.8404 20.6456 31.929 20.8703C32 21.0473 32 21.2653 32 21.7013V22.9653C32 23.4013 32 23.6193 31.93 23.7953C31.8411 24.0208 31.6734 24.2063 31.458 24.3173C31.289 24.4043 31.072 24.4263 30.638 24.4693C29.818 24.5513 29.408 24.5923 29.182 24.7643C29.0417 24.8715 28.9322 25.0139 28.8648 25.1771C28.7973 25.3402 28.7743 25.5183 28.798 25.6933C28.836 25.9733 29.097 26.2933 29.619 26.9313C29.895 27.2683 30.033 27.4363 30.091 27.6183C30.1647 27.8488 30.1522 28.0983 30.056 28.3203C29.98 28.4953 29.826 28.6493 29.518 28.9573L28.624 29.8503C28.316 30.1593 28.162 30.3133 27.987 30.3883C27.7649 30.4845 27.5155 30.497 27.285 30.4233C27.104 30.3653 26.935 30.2273 26.598 29.9513C25.959 29.4293 25.64 29.1683 25.36 29.1313C25.185 29.1076 25.0069 29.1307 24.8437 29.1981C24.6806 29.2655 24.5382 29.375 24.431 29.5153C24.259 29.7403 24.218 30.1503 24.136 30.9713C24.093 31.4053 24.071 31.6223 23.984 31.7913C23.8732 32.0065 23.6881 32.1742 23.463 32.2633C23.286 32.3333 23.068 32.3333 22.632 32.3333H21.368C20.932 32.3333 20.714 32.3333 20.538 32.2633C20.3126 32.1744 20.1271 32.0067 20.016 31.7913C19.929 31.6223 19.907 31.4053 19.864 30.9713C19.782 30.1513 19.741 29.7413 19.569 29.5153C19.4619 29.3752 19.3197 29.2658 19.1567 29.1984C18.9937 29.1309 18.8158 29.1078 18.641 29.1313C18.36 29.1683 18.041 29.4293 17.402 29.9513C17.065 30.2283 16.896 30.3663 16.715 30.4243C16.4845 30.498 16.2351 30.4855 16.013 30.3893C15.838 30.3133 15.683 30.1593 15.376 29.8513L14.482 28.9573C14.174 28.6493 14.02 28.4953 13.944 28.3203C13.8478 28.0983 13.8353 27.8488 13.909 27.6183C13.967 27.4373 14.105 27.2683 14.381 26.9313C14.904 26.2923 15.165 25.9733 15.202 25.6923C15.2255 25.5175 15.2024 25.3396 15.1349 25.1766C15.0675 25.0136 14.9582 24.8714 14.818 24.7643C14.593 24.5923 14.182 24.5513 13.361 24.4693C12.928 24.4263 12.711 24.4043 12.541 24.3173C12.3265 24.2061 12.1596 24.021 12.071 23.7963C12 23.6193 12 23.4013 12 22.9653V21.7013C12 21.2653 12 21.0473 12.07 20.8713C12.1589 20.6459 12.3266 20.4604 12.542 20.3493C12.711 20.2623 12.928 20.2403 13.362 20.1973C14.182 20.1153 14.593 20.0743 14.818 19.9023C14.9583 19.7954 15.0679 19.6532 15.1355 19.4902C15.2031 19.3272 15.2264 19.1492 15.203 18.9743C15.165 18.6933 14.903 18.3743 14.381 17.7343C14.105 17.3973 13.967 17.2293 13.909 17.0473C13.8353 16.8168 13.8478 16.5674 13.944 16.3453C14.02 16.1713 14.174 16.0163 14.482 15.7083L15.376 14.8153C15.684 14.5073 15.838 14.3523 16.013 14.2773C16.2351 14.1811 16.4845 14.1686 16.715 14.2423C16.896 14.3003 17.065 14.4383 17.402 14.7143C18.041 15.2363 18.36 15.4973 18.64 15.5353C18.8152 15.5591 18.9936 15.536 19.157 15.4684C19.3203 15.4007 19.4629 15.291 19.57 15.1503C19.74 14.9253 19.782 14.5153 19.864 13.6943C19.907 13.2613 19.929 13.0443 20.016 12.8743C20.127 12.6595 20.3121 12.4922 20.537 12.4033C20.714 12.3333 20.932 12.3333 21.368 12.3333H22.632C23.068 12.3333 23.286 12.3333 23.462 12.4033C23.6874 12.4922 23.8729 12.6599 23.984 12.8753ZM22 26.3333C23.0609 26.3333 24.0783 25.9119 24.8284 25.1617C25.5786 24.4116 26 23.3942 26 22.3333C26 21.2724 25.5786 20.255 24.8284 19.5049C24.0783 18.7547 23.0609 18.3333 22 18.3333C20.9391 18.3333 19.9217 18.7547 19.1716 19.5049C18.4214 20.255 18 21.2724 18 22.3333C18 23.3942 18.4214 24.4116 19.1716 25.1617C19.9217 25.9119 20.9391 26.3333 22 26.3333Z" fill="#7E7B7B"/>
</svg>
